<svg width="109" height="36" viewBox="0 0 109 36" fill="none" xmlns="http://www.w3.org/2000/svg">
<rect x="43" y="13" width="57" height="23" fill="#EF3B3C"/>
<path d="M5.1036 30.3747C4.14787 30.3747 3.28225 30.1367 2.50674 29.6607C1.7367 29.1793 1.12503 28.4733 0.671742 27.5424C0.223914 26.6062 0 25.4585 0 24.0992C0 22.7028 0.232106 21.5419 0.696318 20.6163C1.16053 19.6854 1.77766 18.9899 2.5477 18.5298C3.32321 18.0643 4.17245 17.8316 5.09541 17.8316C5.79992 17.8316 6.38701 17.948 6.85668 18.1807C7.33182 18.4081 7.71411 18.6937 8.00356 19.0375C8.29847 19.376 8.52238 19.7092 8.6753 20.0371H8.7818V13.9282H12.2634V30.1763H8.82276V28.2247H8.6753C8.51146 28.5632 8.27935 28.899 7.97898 29.2322C7.68407 29.5602 7.29905 29.8326 6.82391 30.0494C6.35424 30.2663 5.7808 30.3747 5.1036 30.3747ZM6.20952 27.6852C6.77203 27.6852 7.24717 27.5371 7.63492 27.2409C8.02813 26.9394 8.32851 26.5189 8.53604 25.9794C8.74903 25.44 8.85552 24.8079 8.85552 24.0833C8.85552 23.3587 8.75176 22.7293 8.54423 22.1951C8.3367 21.6609 8.03633 21.2483 7.64311 20.9574C7.2499 20.6665 6.77203 20.5211 6.20952 20.5211C5.63608 20.5211 5.15275 20.6718 4.75954 20.9733C4.36632 21.2748 4.06868 21.6926 3.86661 22.2268C3.66454 22.761 3.56351 23.3799 3.56351 24.0833C3.56351 24.792 3.66454 25.4188 3.86661 25.9636C4.07414 26.5031 4.37178 26.9262 4.75954 27.233C5.15275 27.5344 5.63608 27.6852 6.20952 27.6852Z" fill="black"/>
<path d="M15.1326 30.1763V17.9903H18.6224V30.1763H15.1326ZM16.8857 16.4194C16.3669 16.4194 15.9218 16.2528 15.5504 15.9196C15.1845 15.5811 15.0016 15.1765 15.0016 14.7057C15.0016 14.2403 15.1845 13.841 15.5504 13.5078C15.9218 13.1693 16.3669 13 16.8857 13C17.4045 13 17.8469 13.1693 18.2128 13.5078C18.5842 13.841 18.7699 14.2403 18.7699 14.7057C18.7699 15.1765 18.5842 15.5811 18.2128 15.9196C17.8469 16.2528 17.4045 16.4194 16.8857 16.4194Z" fill="black"/>
<path d="M27.0868 35C25.9563 35 24.9869 34.8493 24.1786 34.5478C23.3758 34.2516 22.7368 33.847 22.2617 33.3339C21.7866 32.8209 21.478 32.2444 21.336 31.6044L24.5636 31.1839C24.6619 31.4272 24.8176 31.6546 25.0306 31.8662C25.2436 32.0778 25.5248 32.247 25.8743 32.374C26.2293 32.5062 26.6608 32.5723 27.1687 32.5723C27.9278 32.5723 28.5531 32.3925 29.0446 32.0328C29.5416 31.6784 29.7901 31.0834 29.7901 30.2477V28.0184H29.6427C29.4897 28.3569 29.2604 28.6769 28.9545 28.9784C28.6487 29.2798 28.2555 29.5258 27.7749 29.7162C27.2943 29.9066 26.7209 30.0018 26.0546 30.0018C25.1098 30.0018 24.2496 29.7902 23.4741 29.3671C22.7041 28.9387 22.0897 28.2855 21.6309 27.4075C21.1776 26.5242 20.951 25.4082 20.951 24.0595C20.951 22.679 21.1831 21.526 21.6473 20.6004C22.1115 19.6748 22.7286 18.982 23.4987 18.5218C24.2742 18.0617 25.1234 17.8316 26.0464 17.8316C26.7509 17.8316 27.3407 17.948 27.8158 18.1807C28.291 18.4081 28.6733 18.6937 28.9627 19.0375C29.2576 19.376 29.4843 19.7092 29.6427 20.0371H29.7737V17.9903H33.2389V30.2953C33.2389 31.332 32.9768 32.1994 32.4525 32.8976C31.9282 33.5957 31.2019 34.1194 30.2734 34.4684C29.3505 34.8228 28.2882 35 27.0868 35ZM27.1605 27.463C27.723 27.463 28.1981 27.3282 28.5859 27.0584C28.9791 26.7834 29.2795 26.392 29.487 25.8842C29.7 25.3712 29.8065 24.7577 29.8065 24.0436C29.8065 23.3296 29.7027 22.7108 29.4952 22.1872C29.2877 21.6583 28.9873 21.2483 28.5941 20.9574C28.2009 20.6665 27.723 20.5211 27.1605 20.5211C26.587 20.5211 26.1037 20.6718 25.7105 20.9733C25.3173 21.2695 25.0197 21.6821 24.8176 22.211C24.6155 22.7399 24.5145 23.3508 24.5145 24.0436C24.5145 24.7471 24.6155 25.3553 24.8176 25.8684C25.0251 26.3761 25.3228 26.7702 25.7105 27.0505C26.1037 27.3255 26.587 27.463 27.1605 27.463Z" fill="black"/>
<path d="M36.016 30.1763V17.9903H39.5058V30.1763H36.016ZM37.7691 16.4194C37.2503 16.4194 36.8052 16.2528 36.4338 15.9196C36.0679 15.5811 35.8849 15.1765 35.8849 14.7057C35.8849 14.2403 36.0679 13.841 36.4338 13.5078C36.8052 13.1693 37.2503 13 37.7691 13C38.2879 13 38.7303 13.1693 39.0962 13.5078C39.4676 13.841 39.6532 14.2403 39.6532 14.7057C39.6532 15.1765 39.4676 15.5811 39.0962 15.9196C38.7303 16.2528 38.2879 16.4194 37.7691 16.4194Z" fill="black"/>
<path d="M42.3013 34.7461V17.9903H45.7419V20.0371H45.8976C46.0505 19.7092 46.2717 19.376 46.5611 19.0375C46.856 18.6937 47.2383 18.4081 47.708 18.1807C48.1831 17.948 48.773 17.8316 49.4775 17.8316C50.395 17.8316 51.2415 18.0643 52.017 18.5298C52.7925 18.9899 53.4123 19.6854 53.8766 20.6163C54.3408 21.5419 54.5729 22.7028 54.5729 24.0992C54.5729 25.4585 54.3462 26.6062 53.8929 27.5424C53.4451 28.4733 52.8334 29.1793 52.0579 29.6607C51.2879 30.1367 50.425 30.3747 49.4693 30.3747C48.7921 30.3747 48.2159 30.2663 47.7408 30.0494C47.2711 29.8326 46.8861 29.5602 46.5857 29.2322C46.2853 28.899 46.056 28.5632 45.8976 28.2247H45.7911V34.7461H42.3013ZM45.7174 24.0833C45.7174 24.8079 45.8211 25.44 46.0286 25.9794C46.2362 26.5189 46.5366 26.9394 46.9298 27.2409C47.323 27.5371 47.8008 27.6852 48.3634 27.6852C48.9313 27.6852 49.4119 27.5344 49.8051 27.233C50.1984 26.9262 50.496 26.5031 50.6981 25.9636C50.9056 25.4188 51.0094 24.792 51.0094 24.0833C51.0094 23.3799 50.9083 22.761 50.7063 22.2268C50.5042 21.6926 50.2066 21.2748 49.8133 20.9733C49.4201 20.6718 48.9368 20.5211 48.3634 20.5211C47.7954 20.5211 47.3148 20.6665 46.9216 20.9574C46.5338 21.2483 46.2362 21.6609 46.0286 22.1951C45.8211 22.7293 45.7174 23.3587 45.7174 24.0833Z" fill="white"/>
<path d="M60.4875 30.4064C59.6847 30.4064 58.9692 30.2715 58.3412 30.0018C57.7131 29.7268 57.2162 29.3222 56.8502 28.788C56.4898 28.2485 56.3096 27.5768 56.3096 26.7728C56.3096 26.0958 56.4379 25.5272 56.6946 25.0671C56.9513 24.6069 57.3008 24.2367 57.7432 23.9564C58.1855 23.676 58.688 23.4645 59.2505 23.3217C59.8185 23.1789 60.4138 23.0784 61.0363 23.0202C61.7682 22.9461 62.358 22.8774 62.8058 22.8139C63.2536 22.7452 63.5786 22.6447 63.7807 22.5124C63.9827 22.3802 64.0838 22.1845 64.0838 21.9254V21.8777C64.0838 21.3753 63.9199 20.9865 63.5922 20.7115C63.27 20.4365 62.8113 20.299 62.216 20.299C61.5879 20.299 61.0882 20.4338 60.7169 20.7036C60.3455 20.968 60.0997 21.3012 59.9796 21.7032L56.7519 21.4493C56.9158 20.7089 57.238 20.0689 57.7186 19.5294C58.1992 18.9846 58.8191 18.5668 59.5782 18.2759C60.3428 17.9797 61.2275 17.8316 62.2324 17.8316C62.9314 17.8316 63.6004 17.9109 64.2394 18.0696C64.8838 18.2283 65.4546 18.4742 65.9515 18.8074C66.454 19.1406 66.8499 19.5691 67.1394 20.0927C67.4288 20.611 67.5735 21.2325 67.5735 21.9571V30.1763H64.264V28.4865H64.1657C63.9636 28.8673 63.6933 29.2031 63.3547 29.494C63.0161 29.7797 62.6092 30.0044 62.1341 30.1684C61.6589 30.3271 61.1101 30.4064 60.4875 30.4064ZM61.4869 28.0739C62.0003 28.0739 62.4536 27.9761 62.8468 27.7804C63.24 27.5794 63.5485 27.3097 63.7725 26.9712C63.9964 26.6326 64.1083 26.2492 64.1083 25.8208V24.5276C63.9991 24.5963 63.8489 24.6598 63.6578 24.718C63.4721 24.7709 63.2618 24.8211 63.027 24.8687C62.7922 24.911 62.5573 24.9507 62.3225 24.9877C62.0876 25.0195 61.8747 25.0486 61.6835 25.075C61.2739 25.1332 60.9162 25.2257 60.6104 25.3527C60.3045 25.4796 60.067 25.6515 59.8977 25.8684C59.7284 26.0799 59.6437 26.3444 59.6437 26.6617C59.6437 27.1219 59.8157 27.4736 60.1598 27.7169C60.5093 27.9549 60.9517 28.0739 61.4869 28.0739Z" fill="white"/>
<path d="M76.9738 17.9903V20.529H73.185H69.3962V17.9903H76.9738ZM71.1166 15.0707H74.6063V26.4317C74.6063 26.7437 74.6555 26.987 74.7538 27.1616C74.8521 27.3308 74.9886 27.4498 75.1634 27.5186C75.3436 27.5873 75.5512 27.6217 75.786 27.6217C75.9498 27.6217 76.1137 27.6085 76.2775 27.582C76.4414 27.5503 76.567 27.5265 76.6543 27.5106L77.2032 30.0256C77.0284 30.0785 76.7827 30.1393 76.4659 30.2081C76.1492 30.2821 75.7641 30.3271 75.3109 30.3429C74.4698 30.3747 73.7325 30.2663 73.099 30.0177C72.471 29.7691 71.9822 29.383 71.6327 28.8594C71.2831 28.3357 71.1111 27.6746 71.1166 26.8759V15.0707Z" fill="black"/>
<path d="M79.2471 30.1763V17.9903H82.6304V20.1165H82.7615C82.9908 19.3601 83.3759 18.7889 83.9165 18.4028C84.4572 18.0114 85.0798 17.8157 85.7843 17.8157C85.9591 17.8157 86.1475 17.8263 86.3495 17.8475C86.5516 17.8686 86.7291 17.8977 86.882 17.9347V20.9336C86.7182 20.886 86.4915 20.8437 86.2021 20.8067C85.9126 20.7697 85.6478 20.7512 85.4075 20.7512C84.8941 20.7512 84.4353 20.8596 84.0312 21.0765C83.6325 21.288 83.3158 21.5842 83.0809 21.965C82.8516 22.3458 82.7369 22.7848 82.7369 23.282V30.1763H79.2471Z" fill="black"/>
<path d="M91.9139 30.4064C91.1111 30.4064 90.3957 30.2715 89.7676 30.0018C89.1396 29.7268 88.6426 29.3222 88.2767 28.788C87.9163 28.2485 87.736 27.5768 87.736 26.7728C87.736 26.0958 87.8644 25.5272 88.1211 25.0671C88.3777 24.6069 88.7273 24.2367 89.1696 23.9564C89.612 23.676 90.1144 23.4645 90.6769 23.3217C91.2449 23.1789 91.8402 23.0784 92.4628 23.0202C93.1946 22.9461 93.7844 22.8774 94.2323 22.8139C94.6801 22.7452 95.005 22.6447 95.2071 22.5124C95.4092 22.3802 95.5102 22.1845 95.5102 21.9254V21.8777C95.5102 21.3753 95.3464 20.9865 95.0187 20.7115C94.6965 20.4365 94.2377 20.299 93.6424 20.299C93.0144 20.299 92.5147 20.4338 92.1433 20.7036C91.7719 20.968 91.5262 21.3012 91.406 21.7032L88.1784 21.4493C88.3422 20.7089 88.6645 20.0689 89.1451 19.5294C89.6256 18.9846 90.2455 18.5668 91.0046 18.2759C91.7692 17.9797 92.6539 17.8316 93.6588 17.8316C94.3579 17.8316 95.0269 17.9109 95.6659 18.0696C96.3103 18.2283 96.881 18.4742 97.378 18.8074C97.8804 19.1406 98.2764 19.5691 98.5658 20.0927C98.8553 20.611 99 21.2325 99 21.9571V30.1763H95.6904V28.4865H95.5921C95.3901 28.8673 95.1197 29.2031 94.7811 29.494C94.4425 29.7797 94.0357 30.0044 93.5605 30.1684C93.0854 30.3271 92.5365 30.4064 91.9139 30.4064ZM92.9134 28.0739C93.4267 28.0739 93.88 27.9761 94.2732 27.7804C94.6664 27.5794 94.975 27.3097 95.1989 26.9712C95.4228 26.6326 95.5348 26.2492 95.5348 25.8208V24.5276C95.4256 24.5963 95.2754 24.6598 95.0842 24.718C94.8986 24.7709 94.6883 24.8211 94.4535 24.8687C94.2186 24.911 93.9838 24.9507 93.7489 24.9877C93.5141 25.0195 93.3011 25.0486 93.11 25.075C92.7004 25.1332 92.3427 25.2257 92.0368 25.3527C91.731 25.4796 91.4934 25.6515 91.3241 25.8684C91.1548 26.0799 91.0702 26.3444 91.0702 26.6617C91.0702 27.1219 91.2422 27.4736 91.5863 27.7169C91.9358 27.9549 92.3782 28.0739 92.9134 28.0739Z" fill="black"/>
<path d="M5.1036 30.3747C4.14787 30.3747 3.28225 30.1367 2.50674 29.6607C1.7367 29.1793 1.12503 28.4733 0.671742 27.5424C0.223914 26.6062 0 25.4585 0 24.0992C0 22.7028 0.232106 21.5419 0.696318 20.6163C1.16053 19.6854 1.77766 18.9899 2.5477 18.5298C3.32321 18.0643 4.17245 17.8316 5.09541 17.8316C5.79992 17.8316 6.38701 17.948 6.85668 18.1807C7.33182 18.4081 7.71411 18.6937 8.00356 19.0375C8.29847 19.376 8.52238 19.7092 8.6753 20.0371H8.7818V13.9282H12.2634V30.1763H8.82276V28.2247H8.6753C8.51146 28.5632 8.27935 28.899 7.97898 29.2322C7.68407 29.5602 7.29905 29.8326 6.82391 30.0494C6.35424 30.2663 5.7808 30.3747 5.1036 30.3747ZM6.20952 27.6852C6.77203 27.6852 7.24717 27.5371 7.63492 27.2409C8.02813 26.9394 8.32851 26.5189 8.53604 25.9794C8.74903 25.44 8.85552 24.8079 8.85552 24.0833C8.85552 23.3587 8.75176 22.7293 8.54423 22.1951C8.3367 21.6609 8.03633 21.2483 7.64311 20.9574C7.2499 20.6665 6.77203 20.5211 6.20952 20.5211C5.63608 20.5211 5.15275 20.6718 4.75954 20.9733C4.36632 21.2748 4.06868 21.6926 3.86661 22.2268C3.66454 22.761 3.56351 23.3799 3.56351 24.0833C3.56351 24.792 3.66454 25.4188 3.86661 25.9636C4.07414 26.5031 4.37178 26.9262 4.75954 27.233C5.15275 27.5344 5.63608 27.6852 6.20952 27.6852Z" fill="#232323"/>
<path d="M15.1326 30.1763V17.9903H18.6224V30.1763H15.1326ZM16.8857 16.4194C16.3669 16.4194 15.9218 16.2528 15.5504 15.9196C15.1845 15.5811 15.0016 15.1765 15.0016 14.7057C15.0016 14.2403 15.1845 13.841 15.5504 13.5078C15.9218 13.1693 16.3669 13 16.8857 13C17.4045 13 17.8469 13.1693 18.2128 13.5078C18.5842 13.841 18.7699 14.2403 18.7699 14.7057C18.7699 15.1765 18.5842 15.5811 18.2128 15.9196C17.8469 16.2528 17.4045 16.4194 16.8857 16.4194Z" fill="#232323"/>
<path d="M27.0868 35C25.9563 35 24.9869 34.8493 24.1786 34.5478C23.3758 34.2516 22.7368 33.847 22.2617 33.3339C21.7866 32.8209 21.478 32.2444 21.336 31.6044L24.5636 31.1839C24.6619 31.4272 24.8176 31.6546 25.0306 31.8662C25.2436 32.0778 25.5248 32.247 25.8743 32.374C26.2293 32.5062 26.6608 32.5723 27.1687 32.5723C27.9278 32.5723 28.5531 32.3925 29.0446 32.0328C29.5416 31.6784 29.7901 31.0834 29.7901 30.2477V28.0184H29.6427C29.4897 28.3569 29.2604 28.6769 28.9545 28.9784C28.6487 29.2798 28.2555 29.5258 27.7749 29.7162C27.2943 29.9066 26.7209 30.0018 26.0546 30.0018C25.1098 30.0018 24.2496 29.7902 23.4741 29.3671C22.7041 28.9387 22.0897 28.2855 21.6309 27.4075C21.1776 26.5242 20.951 25.4082 20.951 24.0595C20.951 22.679 21.1831 21.526 21.6473 20.6004C22.1115 19.6748 22.7286 18.982 23.4987 18.5218C24.2742 18.0617 25.1234 17.8316 26.0464 17.8316C26.7509 17.8316 27.3407 17.948 27.8158 18.1807C28.291 18.4081 28.6733 18.6937 28.9627 19.0375C29.2576 19.376 29.4843 19.7092 29.6427 20.0371H29.7737V17.9903H33.2389V30.2953C33.2389 31.332 32.9768 32.1994 32.4525 32.8976C31.9282 33.5957 31.2019 34.1194 30.2734 34.4684C29.3505 34.8228 28.2882 35 27.0868 35ZM27.1605 27.463C27.723 27.463 28.1981 27.3282 28.5859 27.0584C28.9791 26.7834 29.2795 26.392 29.487 25.8842C29.7 25.3712 29.8065 24.7577 29.8065 24.0436C29.8065 23.3296 29.7027 22.7108 29.4952 22.1872C29.2877 21.6583 28.9873 21.2483 28.5941 20.9574C28.2009 20.6665 27.723 20.5211 27.1605 20.5211C26.587 20.5211 26.1037 20.6718 25.7105 20.9733C25.3173 21.2695 25.0197 21.6821 24.8176 22.211C24.6155 22.7399 24.5145 23.3508 24.5145 24.0436C24.5145 24.7471 24.6155 25.3553 24.8176 25.8684C25.0251 26.3761 25.3228 26.7702 25.7105 27.0505C26.1037 27.3255 26.587 27.463 27.1605 27.463Z" fill="#232323"/>
<path d="M36.016 30.1763V17.9903H39.5058V30.1763H36.016ZM37.7691 16.4194C37.2503 16.4194 36.8052 16.2528 36.4338 15.9196C36.0679 15.5811 35.8849 15.1765 35.8849 14.7057C35.8849 14.2403 36.0679 13.841 36.4338 13.5078C36.8052 13.1693 37.2503 13 37.7691 13C38.2879 13 38.7303 13.1693 39.0962 13.5078C39.4676 13.841 39.6532 14.2403 39.6532 14.7057C39.6532 15.1765 39.4676 15.5811 39.0962 15.9196C38.7303 16.2528 38.2879 16.4194 37.7691 16.4194Z" fill="#232323"/>
<path d="M42.3013 34.7461V17.9903H45.7419V20.0371H45.8976C46.0505 19.7092 46.2717 19.376 46.5611 19.0375C46.856 18.6937 47.2383 18.4081 47.708 18.1807C48.1831 17.948 48.773 17.8316 49.4775 17.8316C50.395 17.8316 51.2415 18.0643 52.017 18.5298C52.7925 18.9899 53.4123 19.6854 53.8766 20.6163C54.3408 21.5419 54.5729 22.7028 54.5729 24.0992C54.5729 25.4585 54.3462 26.6062 53.8929 27.5424C53.4451 28.4733 52.8334 29.1793 52.0579 29.6607C51.2879 30.1367 50.425 30.3747 49.4693 30.3747C48.7921 30.3747 48.2159 30.2663 47.7408 30.0494C47.2711 29.8326 46.8861 29.5602 46.5857 29.2322C46.2853 28.899 46.056 28.5632 45.8976 28.2247H45.7911V34.7461H42.3013ZM45.7174 24.0833C45.7174 24.8079 45.8211 25.44 46.0286 25.9794C46.2362 26.5189 46.5366 26.9394 46.9298 27.2409C47.323 27.5371 47.8008 27.6852 48.3634 27.6852C48.9313 27.6852 49.4119 27.5344 49.8051 27.233C50.1984 26.9262 50.496 26.5031 50.6981 25.9636C50.9056 25.4188 51.0094 24.792 51.0094 24.0833C51.0094 23.3799 50.9083 22.761 50.7063 22.2268C50.5042 21.6926 50.2066 21.2748 49.8133 20.9733C49.4201 20.6718 48.9368 20.5211 48.3634 20.5211C47.7954 20.5211 47.3148 20.6665 46.9216 20.9574C46.5338 21.2483 46.2362 21.6609 46.0286 22.1951C45.8211 22.7293 45.7174 23.3587 45.7174 24.0833Z" fill="#232323"/>
<path d="M60.4875 30.4064C59.6847 30.4064 58.9692 30.2715 58.3412 30.0018C57.7131 29.7268 57.2162 29.3222 56.8502 28.788C56.4898 28.2485 56.3096 27.5768 56.3096 26.7728C56.3096 26.0958 56.4379 25.5272 56.6946 25.0671C56.9513 24.6069 57.3008 24.2367 57.7432 23.9564C58.1855 23.676 58.688 23.4645 59.2505 23.3217C59.8185 23.1789 60.4138 23.0784 61.0363 23.0202C61.7682 22.9461 62.358 22.8774 62.8058 22.8139C63.2536 22.7452 63.5786 22.6447 63.7807 22.5124C63.9827 22.3802 64.0838 22.1845 64.0838 21.9254V21.8777C64.0838 21.3753 63.9199 20.9865 63.5922 20.7115C63.27 20.4365 62.8113 20.299 62.216 20.299C61.5879 20.299 61.0882 20.4338 60.7169 20.7036C60.3455 20.968 60.0997 21.3012 59.9796 21.7032L56.7519 21.4493C56.9158 20.7089 57.238 20.0689 57.7186 19.5294C58.1992 18.9846 58.8191 18.5668 59.5782 18.2759C60.3428 17.9797 61.2275 17.8316 62.2324 17.8316C62.9314 17.8316 63.6004 17.9109 64.2394 18.0696C64.8838 18.2283 65.4546 18.4742 65.9515 18.8074C66.454 19.1406 66.8499 19.5691 67.1394 20.0927C67.4288 20.611 67.5735 21.2325 67.5735 21.9571V30.1763H64.264V28.4865H64.1657C63.9636 28.8673 63.6933 29.2031 63.3547 29.494C63.0161 29.7797 62.6092 30.0044 62.1341 30.1684C61.6589 30.3271 61.1101 30.4064 60.4875 30.4064ZM61.4869 28.0739C62.0003 28.0739 62.4536 27.9761 62.8468 27.7804C63.24 27.5794 63.5485 27.3097 63.7725 26.9712C63.9964 26.6326 64.1083 26.2492 64.1083 25.8208V24.5276C63.9991 24.5963 63.8489 24.6598 63.6578 24.718C63.4721 24.7709 63.2618 24.8211 63.027 24.8687C62.7922 24.911 62.5573 24.9507 62.3225 24.9877C62.0876 25.0195 61.8747 25.0486 61.6835 25.075C61.2739 25.1332 60.9162 25.2257 60.6104 25.3527C60.3045 25.4796 60.067 25.6515 59.8977 25.8684C59.7284 26.0799 59.6437 26.3444 59.6437 26.6617C59.6437 27.1219 59.8157 27.4736 60.1598 27.7169C60.5093 27.9549 60.9517 28.0739 61.4869 28.0739Z" fill="#232323"/>
<path d="M76.9738 17.9903V20.529H69.3962V17.9903H76.9738ZM71.1166 15.0707H74.6063V26.4317C74.6063 26.7437 74.6555 26.987 74.7538 27.1616C74.8521 27.3308 74.9886 27.4498 75.1634 27.5186C75.3436 27.5873 75.5512 27.6217 75.786 27.6217C75.9498 27.6217 76.1137 27.6085 76.2775 27.582C76.4414 27.5503 76.567 27.5265 76.6543 27.5106L77.2032 30.0256C77.0284 30.0785 76.7827 30.1393 76.4659 30.2081C76.1492 30.2821 75.7641 30.3271 75.3109 30.3429C74.4698 30.3747 73.7325 30.2663 73.099 30.0177C72.471 29.7691 71.9822 29.383 71.6327 28.8594C71.2831 28.3357 71.1111 27.6746 71.1166 26.8759V15.0707Z" fill="#232323"/>
<path d="M79.2471 30.1763V17.9903H82.6304V20.1165H82.7615C82.9908 19.3601 83.3759 18.7889 83.9165 18.4028C84.4572 18.0114 85.0798 17.8157 85.7843 17.8157C85.9591 17.8157 86.1475 17.8263 86.3495 17.8475C86.5516 17.8686 86.7291 17.8977 86.882 17.9347V20.9336C86.7182 20.886 86.4915 20.8437 86.2021 20.8067C85.9126 20.7697 85.6478 20.7512 85.4075 20.7512C84.8941 20.7512 84.4353 20.8596 84.0312 21.0765C83.6325 21.288 83.3158 21.5842 83.0809 21.965C82.8516 22.3458 82.7369 22.7848 82.7369 23.282V30.1763H79.2471Z" fill="#232323"/>
<path d="M91.9139 30.4064C91.1111 30.4064 90.3957 30.2715 89.7676 30.0018C89.1396 29.7268 88.6426 29.3222 88.2767 28.788C87.9163 28.2485 87.736 27.5768 87.736 26.7728C87.736 26.0958 87.8644 25.5272 88.1211 25.0671C88.3777 24.6069 88.7273 24.2367 89.1696 23.9564C89.612 23.676 90.1144 23.4645 90.6769 23.3217C91.2449 23.1789 91.8402 23.0784 92.4628 23.0202C93.1946 22.9461 93.7844 22.8774 94.2323 22.8139C94.6801 22.7452 95.005 22.6447 95.2071 22.5124C95.4092 22.3802 95.5102 22.1845 95.5102 21.9254V21.8777C95.5102 21.3753 95.3464 20.9865 95.0187 20.7115C94.6965 20.4365 94.2377 20.299 93.6424 20.299C93.0144 20.299 92.5147 20.4338 92.1433 20.7036C91.7719 20.968 91.5262 21.3012 91.406 21.7032L88.1784 21.4493C88.3422 20.7089 88.6645 20.0689 89.1451 19.5294C89.6256 18.9846 90.2455 18.5668 91.0046 18.2759C91.7692 17.9797 92.6539 17.8316 93.6588 17.8316C94.3579 17.8316 95.0269 17.9109 95.6659 18.0696C96.3103 18.2283 96.881 18.4742 97.378 18.8074C97.8804 19.1406 98.2764 19.5691 98.5658 20.0927C98.8553 20.611 99 21.2325 99 21.9571V30.1763H95.6904V28.4865H95.5921C95.3901 28.8673 95.1197 29.2031 94.7811 29.494C94.4425 29.7797 94.0357 30.0044 93.5605 30.1684C93.0854 30.3271 92.5365 30.4064 91.9139 30.4064ZM92.9134 28.0739C93.4267 28.0739 93.88 27.9761 94.2732 27.7804C94.6664 27.5794 94.975 27.3097 95.1989 26.9712C95.4228 26.6326 95.5348 26.2492 95.5348 25.8208V24.5276C95.4256 24.5963 95.2754 24.6598 95.0842 24.718C94.8986 24.7709 94.6883 24.8211 94.4535 24.8687C94.2186 24.911 93.9838 24.9507 93.7489 24.9877C93.5141 25.0195 93.3011 25.0486 93.11 25.075C92.7004 25.1332 92.3427 25.2257 92.0368 25.3527C91.731 25.4796 91.4934 25.6515 91.3241 25.8684C91.1548 26.0799 91.0702 26.3444 91.0702 26.6617C91.0702 27.1219 91.2422 27.4736 91.5863 27.7169C91.9358 27.9549 92.3782 28.0739 92.9134 28.0739Z" fill="#232323"/>
<path d="M43 17.9805H42V26.5V34.7591H43V17.9805Z" fill="white"/>
<path d="M5.1036 30.3747C4.14787 30.3747 3.28225 30.1367 2.50674 29.6607C1.7367 29.1793 1.12503 28.4733 0.671742 27.5424C0.223914 26.6062 0 25.4585 0 24.0992C0 22.7028 0.232106 21.5419 0.696318 20.6163C1.16053 19.6854 1.77766 18.9899 2.5477 18.5298C3.32321 18.0643 4.17245 17.8316 5.09541 17.8316C5.79992 17.8316 6.38701 17.948 6.85668 18.1807C7.33182 18.4081 7.71411 18.6937 8.00356 19.0375C8.29847 19.376 8.52238 19.7092 8.6753 20.0371H8.7818V13.9282H12.2634V30.1763H8.82276V28.2247H8.6753C8.51146 28.5632 8.27935 28.899 7.97898 29.2322C7.68407 29.5602 7.29905 29.8326 6.82391 30.0494C6.35424 30.2663 5.7808 30.3747 5.1036 30.3747ZM6.20952 27.6852C6.77203 27.6852 7.24717 27.5371 7.63492 27.2409C8.02813 26.9394 8.32851 26.5189 8.53604 25.9794C8.74903 25.44 8.85552 24.8079 8.85552 24.0833C8.85552 23.3587 8.75176 22.7293 8.54423 22.1951C8.3367 21.6609 8.03633 21.2483 7.64311 20.9574C7.2499 20.6665 6.77203 20.5211 6.20952 20.5211C5.63608 20.5211 5.15275 20.6718 4.75954 20.9733C4.36632 21.2748 4.06868 21.6926 3.86661 22.2268C3.66454 22.761 3.56351 23.3799 3.56351 24.0833C3.56351 24.792 3.66454 25.4188 3.86661 25.9636C4.07414 26.5031 4.37178 26.9262 4.75954 27.233C5.15275 27.5344 5.63608 27.6852 6.20952 27.6852Z" fill="white"/>
<path d="M15.1326 30.1763V17.9903H18.6224V30.1763H15.1326ZM16.8857 16.4194C16.3669 16.4194 15.9218 16.2528 15.5504 15.9196C15.1845 15.5811 15.0016 15.1765 15.0016 14.7057C15.0016 14.2403 15.1845 13.841 15.5504 13.5078C15.9218 13.1693 16.3669 13 16.8857 13C17.4045 13 17.8469 13.1693 18.2128 13.5078C18.5842 13.841 18.7699 14.2403 18.7699 14.7057C18.7699 15.1765 18.5842 15.5811 18.2128 15.9196C17.8469 16.2528 17.4045 16.4194 16.8857 16.4194Z" fill="white"/>
<path d="M27.0868 35C25.9563 35 24.9869 34.8493 24.1786 34.5478C23.3758 34.2516 22.7368 33.847 22.2617 33.3339C21.7866 32.8209 21.478 32.2444 21.336 31.6044L24.5636 31.1839C24.6619 31.4272 24.8176 31.6546 25.0306 31.8662C25.2436 32.0778 25.5248 32.247 25.8743 32.374C26.2293 32.5062 26.6608 32.5723 27.1687 32.5723C27.9278 32.5723 28.5531 32.3925 29.0446 32.0328C29.5416 31.6784 29.7901 31.0834 29.7901 30.2477V28.0184H29.6427C29.4897 28.3569 29.2604 28.6769 28.9545 28.9784C28.6487 29.2798 28.2555 29.5258 27.7749 29.7162C27.2943 29.9066 26.7209 30.0018 26.0546 30.0018C25.1098 30.0018 24.2496 29.7902 23.4741 29.3671C22.7041 28.9387 22.0897 28.2855 21.6309 27.4075C21.1776 26.5242 20.951 25.4082 20.951 24.0595C20.951 22.679 21.1831 21.526 21.6473 20.6004C22.1115 19.6748 22.7286 18.982 23.4987 18.5218C24.2742 18.0617 25.1234 17.8316 26.0464 17.8316C26.7509 17.8316 27.3407 17.948 27.8158 18.1807C28.291 18.4081 28.6733 18.6937 28.9627 19.0375C29.2576 19.376 29.4843 19.7092 29.6427 20.0371H29.7737V17.9903H33.2389V30.2953C33.2389 31.332 32.9768 32.1994 32.4525 32.8976C31.9282 33.5957 31.2019 34.1194 30.2734 34.4684C29.3505 34.8228 28.2882 35 27.0868 35ZM27.1605 27.463C27.723 27.463 28.1981 27.3282 28.5859 27.0584C28.9791 26.7834 29.2795 26.392 29.487 25.8842C29.7 25.3712 29.8065 24.7577 29.8065 24.0436C29.8065 23.3296 29.7027 22.7108 29.4952 22.1872C29.2877 21.6583 28.9873 21.2483 28.5941 20.9574C28.2009 20.6665 27.723 20.5211 27.1605 20.5211C26.587 20.5211 26.1037 20.6718 25.7105 20.9733C25.3173 21.2695 25.0197 21.6821 24.8176 22.211C24.6155 22.7399 24.5145 23.3508 24.5145 24.0436C24.5145 24.7471 24.6155 25.3553 24.8176 25.8684C25.0251 26.3761 25.3228 26.7702 25.7105 27.0505C26.1037 27.3255 26.587 27.463 27.1605 27.463Z" fill="white"/>
<path d="M36.016 30.1763V17.9903H39.5058V30.1763H36.016ZM37.7691 16.4194C37.2503 16.4194 36.8052 16.2528 36.4338 15.9196C36.0679 15.5811 35.8849 15.1765 35.8849 14.7057C35.8849 14.2403 36.0679 13.841 36.4338 13.5078C36.8052 13.1693 37.2503 13 37.7691 13C38.2879 13 38.7303 13.1693 39.0962 13.5078C39.4676 13.841 39.6532 14.2403 39.6532 14.7057C39.6532 15.1765 39.4676 15.5811 39.0962 15.9196C38.7303 16.2528 38.2879 16.4194 37.7691 16.4194Z" fill="white"/>
<rect x="100" y="9" width="5" height="4" fill="white"/>
<rect x="95" y="5" width="5" height="4" fill="#EF3B3C"/>
<rect x="100" y="2" width="3" height="3" fill="white"/>
<path d="M103 0H105V2H103V0Z" fill="#EF3B3C"/>
<rect x="105" y="13" width="4" height="3" fill="#EF3B3C"/>
</svg>
